<mxfile host="app.diagrams.net" modified="2023-12-02T19:29:01.455Z" agent="Mozilla/5.0 (Windows NT 10.0; Win64; x64) AppleWebKit/537.36 (KHTML, like Gecko) Chrome/119.0.0.0 Safari/537.36" etag="ULBI3zUiV6JwGalmDjfu" version="22.1.5" type="device">
  <diagram id="prtHgNgQTEPvFCAcTncT" name="Page-1">
    <mxGraphModel dx="1621" dy="456" grid="1" gridSize="10" guides="1" tooltips="1" connect="1" arrows="1" fold="1" page="1" pageScale="1" pageWidth="827" pageHeight="1169" math="0" shadow="0">
      <root>
        <mxCell id="0" />
        <mxCell id="1" parent="0" />
        <mxCell id="dNxyNK7c78bLwvsdeMH5-11" value="Base de datos" style="swimlane;html=1;startSize=20;horizontal=1;containerType=tree;glass=0;" parent="1" vertex="1">
          <mxGeometry x="100" y="190" width="250" height="160" as="geometry" />
        </mxCell>
        <UserObject label="SGBD: &lt;i style=&quot;&quot;&gt;&lt;font style=&quot;&quot; color=&quot;#808080&quot;&gt;Mysql o SQL Server&lt;/font&gt;&lt;/i&gt;" name="Edward Morrison" position="Brand Manager" location="Office 2" email="me@example.com" placeholders="1" id="ZHCZY71GXeiebjeS2sUy-4">
          <mxCell style="label;whiteSpace=wrap;html=1;rounded=0;glass=0;treeFolding=1;treeMoving=1;spacingLeft=0;spacing=25;align=center;" vertex="1" parent="dNxyNK7c78bLwvsdeMH5-11">
            <mxGeometry x="30" y="47.5" width="190" height="80" as="geometry" />
          </mxCell>
        </UserObject>
        <mxCell id="fVVXHt8dOazqZOPAclW9-1" value="Cliente" style="swimlane;html=1;startSize=20;horizontal=1;containerType=tree;glass=0;spacing=25;labelBorderColor=none;verticalAlign=middle;" parent="1" vertex="1">
          <mxGeometry x="-500" y="70" width="500" height="415" as="geometry" />
        </mxCell>
        <UserObject label="Navegador web&lt;i style=&quot;border-color: var(--border-color); color: gray;&quot;&gt;&amp;nbsp;&lt;/i&gt;" name="Tessa Miller" position="CFO" location="Office 1" email="me@example.com" placeholders="1" id="fVVXHt8dOazqZOPAclW9-2">
          <mxCell style="label;whiteSpace=wrap;html=1;rounded=0;glass=0;treeMoving=1;treeFolding=1;spacingLeft=0;spacing=25;align=center;" parent="fVVXHt8dOazqZOPAclW9-1" vertex="1">
            <mxGeometry x="20" y="80" width="180" height="70" as="geometry" />
          </mxCell>
        </UserObject>
        <mxCell id="fVVXHt8dOazqZOPAclW9-3" value="" style="endArrow=blockThin;endFill=1;fontSize=11;edgeStyle=elbowEdgeStyle;elbow=vertical;rounded=0;" parent="fVVXHt8dOazqZOPAclW9-1" source="fVVXHt8dOazqZOPAclW9-2" target="fVVXHt8dOazqZOPAclW9-4" edge="1">
          <mxGeometry relative="1" as="geometry" />
        </mxCell>
        <UserObject label="Interfaz de empleado" name="Edward Morrison" position="Brand Manager" location="Office 2" email="me@example.com" placeholders="1" id="fVVXHt8dOazqZOPAclW9-4">
          <mxCell style="label;whiteSpace=wrap;html=1;rounded=0;glass=0;treeFolding=1;treeMoving=1;spacingLeft=0;spacing=25;align=center;" parent="fVVXHt8dOazqZOPAclW9-1" vertex="1">
            <mxGeometry x="260" y="87.5" width="190" height="80" as="geometry" />
          </mxCell>
        </UserObject>
        <mxCell id="fVVXHt8dOazqZOPAclW9-25" value="&lt;h1&gt;&lt;font style=&quot;font-size: 13px;&quot;&gt;HMTL / JS / PHP 8&amp;nbsp; o C# .NET&lt;/font&gt;&lt;/h1&gt;" style="text;html=1;strokeColor=none;fillColor=none;spacing=5;spacingTop=-20;whiteSpace=wrap;overflow=hidden;rounded=0;" parent="fVVXHt8dOazqZOPAclW9-1" vertex="1">
          <mxGeometry x="40" y="25" width="190" height="40" as="geometry" />
        </mxCell>
        <UserObject label="Servidor web: &lt;i style=&quot;border-color: var(--border-color); color: gray;&quot;&gt;Apache&amp;nbsp;2.4.41&amp;nbsp;&lt;/i&gt;" name="Tessa Miller" position="CFO" location="Office 1" email="me@example.com" placeholders="1" id="fVVXHt8dOazqZOPAclW9-26">
          <mxCell style="label;whiteSpace=wrap;html=1;rounded=0;glass=0;treeMoving=1;treeFolding=1;spacingLeft=0;spacing=25;align=center;" parent="fVVXHt8dOazqZOPAclW9-1" vertex="1">
            <mxGeometry x="20" y="247.5" width="180" height="70" as="geometry" />
          </mxCell>
        </UserObject>
        <UserObject label="&lt;font style=&quot;font-size: 12px;&quot;&gt;Sistema operativo: &lt;i style=&quot;border-color: var(--border-color); color: gray;&quot;&gt;Ubuntu Linux o Windows&lt;/i&gt;&lt;/font&gt;" name="Alison Donovan" position="System Admin" location="Office 3" email="me@example.com" placeholders="1" id="dNxyNK7c78bLwvsdeMH5-18">
          <mxCell style="label;whiteSpace=wrap;html=1;rounded=0;glass=0;spacing=25;spacingLeft=0;" parent="fVVXHt8dOazqZOPAclW9-1" vertex="1">
            <mxGeometry x="250" y="242.5" width="210" height="80" as="geometry" />
          </mxCell>
        </UserObject>
        <mxCell id="fVVXHt8dOazqZOPAclW9-31" value="" style="endArrow=classic;html=1;rounded=0;exitX=0;exitY=0.5;exitDx=0;exitDy=0;entryX=1;entryY=0.5;entryDx=0;entryDy=0;" parent="fVVXHt8dOazqZOPAclW9-1" source="dNxyNK7c78bLwvsdeMH5-18" target="fVVXHt8dOazqZOPAclW9-26" edge="1">
          <mxGeometry width="50" height="50" relative="1" as="geometry">
            <mxPoint x="210" y="395" as="sourcePoint" />
            <mxPoint x="260" y="345" as="targetPoint" />
          </mxGeometry>
        </mxCell>
        <mxCell id="fVVXHt8dOazqZOPAclW9-38" value="" style="endArrow=classic;html=1;rounded=0;exitX=0.25;exitY=0;exitDx=0;exitDy=0;entryX=0.25;entryY=1;entryDx=0;entryDy=0;" parent="fVVXHt8dOazqZOPAclW9-1" source="fVVXHt8dOazqZOPAclW9-26" target="fVVXHt8dOazqZOPAclW9-2" edge="1">
          <mxGeometry width="50" height="50" relative="1" as="geometry">
            <mxPoint x="50" y="310" as="sourcePoint" />
            <mxPoint x="100" y="260" as="targetPoint" />
          </mxGeometry>
        </mxCell>
        <mxCell id="fVVXHt8dOazqZOPAclW9-20" value="" style="endArrow=none;html=1;rounded=0;entryX=0;entryY=0.5;entryDx=0;entryDy=0;exitX=1;exitY=0.5;exitDx=0;exitDy=0;" parent="1" source="dNxyNK7c78bLwvsdeMH5-18" target="ZHCZY71GXeiebjeS2sUy-4" edge="1">
          <mxGeometry width="50" height="50" relative="1" as="geometry">
            <mxPoint x="-27" y="400" as="sourcePoint" />
            <mxPoint x="135" y="280" as="targetPoint" />
          </mxGeometry>
        </mxCell>
        <mxCell id="fVVXHt8dOazqZOPAclW9-21" value="" style="endArrow=none;html=1;rounded=0;exitX=1;exitY=0.5;exitDx=0;exitDy=0;entryX=0;entryY=0.5;entryDx=0;entryDy=0;" parent="1" source="fVVXHt8dOazqZOPAclW9-4" target="ZHCZY71GXeiebjeS2sUy-4" edge="1">
          <mxGeometry width="50" height="50" relative="1" as="geometry">
            <mxPoint x="30" y="295" as="sourcePoint" />
            <mxPoint x="135" y="280" as="targetPoint" />
          </mxGeometry>
        </mxCell>
      </root>
    </mxGraphModel>
  </diagram>
</mxfile>
